<svg width="73" height="77" viewBox="0 0 73 77" fill="none" xmlns="http://www.w3.org/2000/svg">
<g filter="url(#filter0_d_31_20)">
<rect x="4" width="65" height="69" rx="20" fill="#1F51FF" shape-rendering="crispEdges"/>
<path d="M51.8334 52.875V48.7917C51.8334 46.6257 50.9729 44.5485 49.4414 43.017C47.9098 41.4854 45.8326 40.625 43.6667 40.625H27.3334C25.1674 40.625 23.0902 41.4854 21.5586 43.017C20.0271 44.5485 19.1667 46.6257 19.1667 48.7917V52.875" stroke="white" stroke-width="2" stroke-linecap="round" stroke-linejoin="round"/>
<path d="M35.5 32.4583C40.0103 32.4583 43.6666 28.802 43.6666 24.2917C43.6666 19.7813 40.0103 16.125 35.5 16.125C30.9897 16.125 27.3333 19.7813 27.3333 24.2917C27.3333 28.802 30.9897 32.4583 35.5 32.4583Z" stroke="white" stroke-width="2" stroke-linecap="round" stroke-linejoin="round"/>
</g>
<defs>
<filter id="filter0_d_31_20" x="0" y="0" width="73" height="77" filterUnits="userSpaceOnUse" color-interpolation-filters="sRGB">
<feFlood flood-opacity="0" result="BackgroundImageFix"/>
<feColorMatrix in="SourceAlpha" type="matrix" values="0 0 0 0 0 0 0 0 0 0 0 0 0 0 0 0 0 0 127 0" result="hardAlpha"/>
<feOffset dy="4"/>
<feGaussianBlur stdDeviation="2"/>
<feComposite in2="hardAlpha" operator="out"/>
<feColorMatrix type="matrix" values="0 0 0 0 0 0 0 0 0 0 0 0 0 0 0 0 0 0 0.25 0"/>
<feBlend mode="normal" in2="BackgroundImageFix" result="effect1_dropShadow_31_20"/>
<feBlend mode="normal" in="SourceGraphic" in2="effect1_dropShadow_31_20" result="shape"/>
</filter>
</defs>
</svg>
