<svg width="34" height="34" viewBox="0 0 34 34" fill="none" xmlns="http://www.w3.org/2000/svg">
<path d="M26.9167 15.5834H7.08333C5.51853 15.5834 4.25 16.8519 4.25 18.4167V28.3334C4.25 29.8982 5.51853 31.1667 7.08333 31.1667H26.9167C28.4815 31.1667 29.75 29.8982 29.75 28.3334V18.4167C29.75 16.8519 28.4815 15.5834 26.9167 15.5834Z" stroke="black" stroke-width="2" stroke-linecap="round" stroke-linejoin="round"/>
<path d="M9.91666 15.5834V9.91671C9.91666 8.03809 10.6629 6.23642 11.9913 4.90803C13.3197 3.57965 15.1214 2.83337 17 2.83337C18.8786 2.83337 20.6803 3.57965 22.0087 4.90803C23.337 6.23642 24.0833 8.03809 24.0833 9.91671V15.5834" stroke="black" stroke-width="2" stroke-linecap="round" stroke-linejoin="round"/>
</svg>
